<?xml version="1.0" encoding="UTF-8" standalone="no"?>
<!-- Created with Inkscape (http://www.inkscape.org/) -->

<svg
   xmlns:dc="http://purl.org/dc/elements/1.1/"
   xmlns:cc="http://creativecommons.org/ns#"
   xmlns:rdf="http://www.w3.org/1999/02/22-rdf-syntax-ns#"
   xmlns:svg="http://www.w3.org/2000/svg"
   xmlns="http://www.w3.org/2000/svg"
   xmlns:sodipodi="http://sodipodi.sourceforge.net/DTD/sodipodi-0.dtd"
   xmlns:inkscape="http://www.inkscape.org/namespaces/inkscape"
   width="80.834953mm"
   height="22.595417mm"
   viewBox="0 0 80.834953 22.595417"
   version="1.1"
   id="svg23"
   inkscape:version="0.92.3 (2405546, 2018-03-11)"
   sodipodi:docname="logo_obj.svg">
  <defs
     id="defs17" />
  <sodipodi:namedview
     id="base"
     pagecolor="#ffffff"
     bordercolor="#666666"
     borderopacity="1.0"
     inkscape:pageopacity="0.0"
     inkscape:pageshadow="2"
     inkscape:zoom="2.8"
     inkscape:cx="87.699327"
     inkscape:cy="-39.42749"
     inkscape:document-units="mm"
     inkscape:current-layer="layer1"
     showgrid="false"
     inkscape:window-width="2560"
     inkscape:window-height="1376"
     inkscape:window-x="0"
     inkscape:window-y="34"
     inkscape:window-maximized="1" />
  <metadata
     id="metadata20">
    <rdf:RDF>
      <cc:Work
         rdf:about="">
        <dc:format>image/svg+xml</dc:format>
        <dc:type
           rdf:resource="http://purl.org/dc/dcmitype/StillImage" />
        <dc:title></dc:title>
      </cc:Work>
    </rdf:RDF>
  </metadata>
  <g
     inkscape:label="Layer 1"
     inkscape:groupmode="layer"
     id="layer1"
     transform="translate(-27.415873,-17.037068)">
    <path
       inkscape:connector-curvature="0"
       id="path81"
       style="font-style:normal;font-variant:normal;font-weight:bold;font-stretch:normal;font-size:medium;line-height:1.25;font-family:'Josefin Sans';-inkscape-font-specification:'Josefin Sans, Bold';font-variant-ligatures:normal;font-variant-caps:normal;font-variant-numeric:normal;font-feature-settings:normal;text-align:start;letter-spacing:0px;word-spacing:0px;writing-mode:lr-tb;text-anchor:start;fill:#000000;fill-opacity:1;stroke:none;stroke-width:0.26458332"
       d="m 42.504178,21.556151 v 18.076333 q -3.185583,-3.383138 -6.321777,-6.716888 -3.136195,-3.33375 -6.321778,-6.716889 -0.123472,-0.172862 -0.246945,-0.321028 -0.09878,-0.148167 -0.22225,-0.321028 0.02469,0.197556 0.02469,0.395111 0.02469,0.197556 0.04939,0.395111 V 38.842262 H 27.415873 V 20.765929 q 3.185583,3.457222 6.321778,6.865055 3.136194,3.383139 6.321777,6.840362 0.123473,0.172861 0.22225,0.321027 0.123473,0.148167 0.246945,0.321028 -0.0247,-0.197555 -0.04939,-0.395111 0,-0.197556 -0.02469,-0.395111 V 21.556151 Z" />
    <path
       inkscape:connector-curvature="0"
       id="path83"
       style="font-style:normal;font-variant:normal;font-weight:bold;font-stretch:normal;font-size:medium;line-height:1.25;font-family:'Josefin Sans';-inkscape-font-specification:'Josefin Sans, Bold';font-variant-ligatures:normal;font-variant-caps:normal;font-variant-numeric:normal;font-feature-settings:normal;text-align:start;letter-spacing:0px;word-spacing:0px;writing-mode:lr-tb;text-anchor:start;fill:#000000;fill-opacity:1;stroke:none;stroke-width:0.26458332"
       d="m 46.54172,30.223901 q 0,-1.802694 0.691444,-3.407833 0.691444,-1.629834 1.876778,-2.839861 1.210028,-1.210028 2.815166,-1.901473 1.605139,-0.716139 3.432528,-0.716139 1.802695,0 3.407834,0.716139 1.629833,0.691445 2.839861,1.901473 1.210028,1.210027 1.901472,2.839861 0.716139,1.605139 0.716139,3.407833 0,1.827389 -0.716139,3.432528 -0.691444,1.605139 -1.901472,2.815167 -1.210028,1.185333 -2.839861,1.876777 -1.605139,0.691445 -3.407834,0.691445 -1.827389,0 -3.432528,-0.691445 Q 50.31997,37.656929 49.109942,36.471596 47.924608,35.261568 47.233164,33.656429 46.54172,32.05129 46.54172,30.223901 Z m 2.049638,0 q 0,1.432278 0.518584,2.691695 0.543278,1.234722 1.456972,2.173111 0.938389,0.913694 2.173111,1.456972 1.234722,0.543278 2.642306,0.543278 1.407583,0 2.642305,-0.543278 1.234723,-0.543278 2.148417,-1.456972 0.938389,-0.938389 1.456972,-2.173111 0.543278,-1.259417 0.543278,-2.691695 0,-1.432278 -0.543278,-2.667 -0.518583,-1.259417 -1.456972,-2.197806 -0.913694,-0.938388 -2.148417,-1.481666 -1.234722,-0.543278 -2.642305,-0.543278 -1.407584,0 -2.642306,0.543278 -1.234722,0.543278 -2.173111,1.481666 -0.913694,0.938389 -1.456972,2.197806 -0.518584,1.234722 -0.518584,2.667 z" />
    <path
       inkscape:connector-curvature="0"
       id="path85"
       style="font-style:normal;font-variant:normal;font-weight:bold;font-stretch:normal;font-size:medium;line-height:1.25;font-family:'Josefin Sans';-inkscape-font-specification:'Josefin Sans, Bold';font-variant-ligatures:normal;font-variant-caps:normal;font-variant-numeric:normal;font-feature-settings:normal;text-align:start;letter-spacing:0px;word-spacing:0px;writing-mode:lr-tb;text-anchor:start;fill:#000000;fill-opacity:1;stroke:none;stroke-width:0.26458332"
       d="M 67.454056,38.842262 V 21.556151 h 10.643306 v 1.950861 h -8.593667 v 5.655028 h 7.630583 v 1.950861 h -7.630583 v 5.7785 h 8.939389 v 1.950861 z m 4.790722,-18.520833 q 0.567972,-0.814917 1.11125,-1.629834 0.543278,-0.839611 1.11125,-1.654527 h 2.074334 q -0.716139,0.814916 -1.432278,1.654527 -0.691445,0.814917 -1.407584,1.629834 z" />
    <path
       inkscape:connector-curvature="0"
       id="path87"
       style="font-style:normal;font-variant:normal;font-weight:bold;font-stretch:normal;font-size:medium;line-height:1.25;font-family:'Josefin Sans';-inkscape-font-specification:'Josefin Sans, Bold';font-variant-ligatures:normal;font-variant-caps:normal;font-variant-numeric:normal;font-feature-settings:normal;text-align:start;letter-spacing:0px;word-spacing:0px;writing-mode:lr-tb;text-anchor:start;fill:#000000;fill-opacity:1;stroke:none;stroke-width:0.26458332"
       d="m 83.074835,20.765929 q 2.271889,2.938639 4.519083,5.877278 2.247195,2.913944 4.519084,5.852583 2.271889,-2.938639 4.519083,-5.852583 2.247195,-2.938639 4.519085,-5.877278 V 38.842262 H 99.10153 V 27.235873 q 0.02469,-0.197555 0.02469,-0.395111 0.02469,-0.197555 0.04939,-0.395111 -1.629833,2.420056 -3.457222,4.716639 -1.827389,2.271889 -3.605389,4.593167 -1.654528,-2.173111 -3.309056,-4.321528 -1.654528,-2.148417 -3.309055,-4.321528 l -0.4445,-0.66675 q 0.02469,0.197556 0.02469,0.395111 0.02469,0.197556 0.04939,0.395111 v 11.606389 h -2.049639 z" />
    <path
       inkscape:connector-curvature="0"
       id="path89"
       style="font-style:normal;font-variant:normal;font-weight:bold;font-stretch:normal;font-size:medium;line-height:1.25;font-family:'Josefin Sans';-inkscape-font-specification:'Josefin Sans, Bold';font-variant-ligatures:normal;font-variant-caps:normal;font-variant-numeric:normal;font-feature-settings:normal;text-align:start;letter-spacing:0px;word-spacing:0px;writing-mode:lr-tb;text-anchor:start;fill:#000000;fill-opacity:1;stroke:none;stroke-width:0.26458332"
       d="m 106.20118,21.556151 h 2.04964 v 17.286111 h -2.04964 z" />
  </g>
</svg>
