<svg xmlns="http://www.w3.org/2000/svg" width="293.188" height="66.718" viewBox="0 0 293.188 66.718">
  <metadata><?xpacket begin="﻿" id="W5M0MpCehiHzreSzNTczkc9d"?>
<x:xmpmeta xmlns:x="adobe:ns:meta/" x:xmptk="Adobe XMP Core 5.6-c142 79.160924, 2017/07/13-01:06:39        ">
   <rdf:RDF xmlns:rdf="http://www.w3.org/1999/02/22-rdf-syntax-ns#">
      <rdf:Description rdf:about=""/>
   </rdf:RDF>
</x:xmpmeta>
                                                                                                    
                                                                                                    
                                                                                                    
                                                                                                    
                                                                                                    
                                                                                                    
                                                                                                    
                                                                                                    
                                                                                                    
                                                                                                    
                                                                                                    
                                                                                                    
                                                                                                    
                                                                                                    
                                                                                                    
                                                                                                    
                                                                                                    
                                                                                                    
                                                                                                    
                                                                                                    
                           
<?xpacket end="w"?></metadata>
<defs>
    <style>
      .cls-1 {
        fill-rule: evenodd;
      }
    </style>
  </defs>
  <path id="Noémi" class="cls-1" d="M726.02,127.193l0.223,31.065-36.027-33.051H689.8l0.02,53.646,10.3-.013-0.222-30.5,36.1,32.561h0.281l-0.021-53.717Zm33.011,25.833a25.566,25.566,0,0,0,3.544,13.179,26.387,26.387,0,0,0,9.567,9.559,26.2,26.2,0,0,0,26.31-.035,26.957,26.957,0,0,0,9.665-9.584,25.758,25.758,0,0,0-.01-26.3,27.29,27.29,0,0,0-9.673-9.7,25.7,25.7,0,0,0-26.274.034,26.79,26.79,0,0,0-9.6,9.726,25.72,25.72,0,0,0-3.533,13.118h0Zm10.51-.014a17.048,17.048,0,0,1,2.1-8.418,16.018,16.018,0,0,1,5.708-6,15.669,15.669,0,0,1,16.045-.021,15.972,15.972,0,0,1,5.712,5.988,17.947,17.947,0,0,1,.077,16.725,15.651,15.651,0,0,1-5.6,5.968,14.781,14.781,0,0,1-7.917,2.219,15.545,15.545,0,0,1-8.163-2.2,16.063,16.063,0,0,1-5.818-5.988,16.535,16.535,0,0,1-2.14-8.272h0Zm64.94-25.962,0.02,51.612,36.154-.048,0-9.817-25.994.034,0-11.15,22.141-.029,0-9.818-22.14.03,0-11.01,25.014-.033,0-9.818ZM865.1,114.176l-10.86.015-5.462,9.474,5.956-.008ZM946.724,124.8l-26.75,37.131-26.149-37.062h-0.07l0.021,53.716,9.809-.013L903.576,155.5l16.194,22.348h0.14l16.806-23.935,0.01,24.614,10.159-.013-0.02-53.717h-0.141Zm26.066,2.069,0.02,51.612,10.159-.013-0.02-51.612Z" transform="translate(-689.781 -114.188)"/>
</svg>
